<svg xmlns="http://www.w3.org/2000/svg" xmlns:xlink="http://www.w3.org/1999/xlink" xmlns:lucid="lucid" width="1728" height="1300"><g transform="translate(-12 -20)" lucid:page-tab-id="0_0"><path d="M160 102c0-16.57 13.43-30 30-30h1500c16.57 0 30 13.43 30 30v1168c0 16.57-13.43 30-30 30H190c-16.57 0-30-13.43-30-30z" stroke="#474747" fill-opacity="0"/><path d="M268 74.4v3.54c0 6.42-7.1 13.05-15.76 13.05h-46.48C197.1 91 190 84.35 190 77.93V74.4z" fill="#9d5125"/><path d="M220.03 40c8.03 0 14.82 4.4 18.17 11.67 4.6-3.14 10.92-1.98 14.04 2.65 1.17 1.64 1.7 3.32 1.8 5.3 7.87.68 13.95 8.25 13.95 14.27v1.3c0 6.45-7.1 13-15.76 13h-46.5c-8.64 0-15.74-6.55-15.74-13v-1.3c0-5.02 4.2-11.87 10.06-13.56v-.57c.08-10.95 8.97-19.82 19.97-19.77z" fill="#f58535"/><path d="M209.54 63.13l-5.2 18.2h3.04l1.17-4.43h5.38l1.1 4.43h3.05l-4.8-18.2zm-.47 11.4l2.22-8.98 2.1 8.97zM231.2 77.34h-.03l-2.47-14.2h-3.1l-2.4 14.13h-.06l-2.4-14.14h-2.95l3.53 18.2h3.38l2.35-13.7h.06l2.36 13.7h3.4l3.64-18.2h-2.9l-2.4 14.2zM245.9 71.4l-1.98-.72c-1.93-.7-2.74-1.53-2.74-3.1-.17-1.26.74-2.43 2-2.6.16-.02.3-.02.45-.02 1.26-.17 2.4.72 2.58 1.96.04.25.03.44 0 .68v.38h2.93v-.4c0-1.9-.5-4.8-5.18-4.8-3.44 0-5.7 1.84-5.7 5.16 0 2.6 1.1 3.97 3.82 5l2 .68c1.6.23 2.73 1.6 2.64 3.2.04 1.45-1.08 2.64-2.5 2.68h-.28c-2 0-3-1.12-3-3.33v-.47h-2.9v.44c0 2.54 1.02 5.53 5.52 5.53 3.7 0 6.07-1.6 6.07-5.48.04-2.5-1.1-3.9-3.7-4.8z" fill="#fff"/><use xlink:href="#a" transform="matrix(1,0,0,1,160,1270) translate(735.875 12.799999999999999)"/><use xlink:href="#b" transform="matrix(1,0,0,1,160,1270) translate(781.175 12.799999999999999)"/><path d="M480 190c0-16.57 13.43-30 30-30h937.5c16.57 0 30 13.43 30 30v410c0 16.57-13.43 30-30 30H510c-16.57 0-30-13.43-30-30z" fill-opacity="0"/><path d="M495.04 164.1l3.17-1.7 4.72-1.56 4.93-.76L510 160h14.88m14.88 0h29.76m14.88 0h29.77m14.88 0h29.76m14.9 0h29.75m14.88 0h29.77m14.88 0h29.76m14.88 0h29.76m14.88 0h29.76m14.88 0h29.77m14.88 0h29.76m14.9 0h29.75m14.88 0h29.77m14.88 0h29.76m14.88 0h29.76m14.88 0h29.76m14.88 0h29.77m14.88 0h29.76m14.9 0h29.75m14.88 0h29.77m14.88 0h29.76m14.88 0h14.88l5 .42 4.82 1.22 4.54 2 .6.42m10.95 10.98l1.7 3.17 1.56 4.72.76 4.93.08 2.15v15.2m0 15.17v30.37m0 15.2v30.36m0 15.18v30.37m0 15.2v30.36m0 15.2v30.36m0 15.2v30.36m0 15.18v30.37m0 15.2v30.36m0 15.18V600l-.42 5-1.22 4.82-2 4.54-.42.6m-10.98 10.95l-3.17 1.7-4.72 1.56-4.93.76-2.15.08h-14.88m-14.88 0h-29.76m-14.88 0h-29.77m-14.88 0h-29.76m-14.9 0h-29.75m-14.88 0h-29.77m-14.88 0h-29.76m-14.88 0h-29.76m-14.88 0h-29.76m-14.88 0h-29.77m-14.88 0H986.2m-14.9 0h-29.75m-14.88 0H896.9m-14.88 0h-29.76m-14.88 0h-29.76m-14.88 0h-29.76m-14.88 0h-29.77m-14.88 0H673.7m-14.9 0h-29.75m-14.88 0H584.4m-14.88 0h-29.76m-14.88 0H510l-5-.42-4.82-1.22-4.54-2-.6-.42m-10.95-10.98l-1.7-3.17-1.56-4.72-.76-4.93L480 600v-15.2m0-15.17v-30.37m0-15.2V493.7m0-15.18v-30.37m0-15.2V402.6m0-15.2v-30.36m0-15.2V311.5m0-15.18v-30.37m0-15.2v-30.36m0-15.18V190l.42-5 1.22-4.82 2-4.54.42-.6" stroke="#f7981f" stroke-width="3" fill="none"/><use xlink:href="#c" transform="matrix(1,0,0,1,480,600) translate(425.325 12.799999999999999)"/><use xlink:href="#d" transform="matrix(1,0,0,1,480,600) translate(514.725 12.799999999999999)"/><use xlink:href="#e" transform="matrix(1,0,0,1,480,600) translate(560.675 12.799999999999999)"/><path d="M48.83 706.84H33.28c-.7 0-1.28-.58-1.28-1.28v-1.9c0-7.12 4.68-13.08 11.62-14.75.32-.07.6-.03.9.13 2.05 1.1 4.26 1.1 6.3 0 .3-.16.6-.2.92-.12 1.82.45 3.32 1.1 4.87 2.14l-1.42 2.12c-1.15-.75-2.24-1.25-3.6-1.6-2.57 1.17-5.23 1.17-7.82 0-5.53 1.53-9.2 6.37-9.2 12.1v.63h14.27z" stroke="#fff" stroke-opacity="0" fill="#232f3e"/><path d="M47.66 692.35c-4.63 0-8.38-3.75-8.38-8.36 0-4.63 3.75-8.37 8.38-8.37 4.62-.05 8.4 3.66 8.44 8.26.04 3.18-1.58 5.9-4.4 7.4-1.28.73-2.55 1.05-4.04 1.05zm0-14.18c-3.23 0-5.87 2.6-5.9 5.82 0 2.18 1.12 4.05 3.05 5.1 1.85.97 3.87.97 5.7 0 1.95-1.07 3.08-2.97 3.05-5.2-.04-3.2-2.68-5.75-5.9-5.7zM90.74 706.84H75.18v-2.55h14.28v-.64c0-5.75-3.67-10.58-9.2-12.12-2.6 1.2-5.25 1.2-7.84 0-1.36.38-2.47.9-3.63 1.7l-1.46-2.1c1.55-1.07 3.06-1.76 4.88-2.22.32-.08.64-.04.94.12 2.02 1.1 4.27 1.1 6.3 0 .3-.16.6-.2.92-.12C87.3 690.6 92 696.55 92 703.66v1.9c0 .7-.57 1.26-1.26 1.28z" stroke="#fff" stroke-opacity="0" fill="#232f3e"/><path d="M76.3 692.35c-4.65 0-8.4-3.8-8.4-8.44s3.8-8.4 8.45-8.4c4.66 0 8.42 3.8 8.42 8.44 0 3.17-1.6 5.86-4.4 7.38-1.3.7-2.57 1.03-4.06 1.03zm0-14.17c-3.2-.02-5.85 2.58-5.86 5.8-.02 2.2 1.1 4.07 3.04 5.1 1.82 1 3.84 1 5.7 0 1.96-1.05 3.1-2.97 3.06-5.2-.07-3.2-2.72-5.77-5.93-5.7zM82.4 735.5H41.55c-.7 0-1.26-.56-1.26-1.27v-2.7c-.04-9.82 6.46-18.07 16-20.4.34-.1.65-.04.95.1 3.03 1.64 6.37 1.64 9.45 0 .26-.14.56-.2.9-.1 9.6 2.3 16.1 10.55 16.05 20.4v2.7c0 .7-.57 1.27-1.26 1.27zm-39.54-2.54H81.1v-1.44c0-8.44-5.47-15.55-13.66-17.74-3.6 1.73-7.37 1.73-10.97 0-8.2 2.2-13.6 9.3-13.6 17.74z" stroke="#fff" stroke-opacity="0" fill="#232f3e"/><path d="M62.02 714.98c-2.03 0-3.75-.43-5.54-1.4-5.57-3.05-7.62-10-4.58-15.57 3.06-5.54 10.02-7.6 15.6-4.56 5.58 3.05 7.62 10 4.6 15.58-1.12 2.02-2.56 3.46-4.6 4.56-1.76.97-3.48 1.4-5.48 1.4zm0-20.07c-3.34-.04-6.2 1.64-7.82 4.57-2.3 4.25-.74 9.57 3.52 11.9 2.76 1.46 5.8 1.46 8.55 0 2.97-1.62 4.67-4.5 4.62-7.84-.08-4.8-4.05-8.7-8.88-8.62z" stroke="#fff" stroke-opacity="0" fill="#232f3e"/><path d="M91.08 706.84h-29.8c-.5 0-.9-.4-.9-.93v-1.96c-.04-7.16 4.7-13.18 11.66-14.87.26-.08.48-.04.7.07 2.2 1.2 4.65 1.2 6.9 0 .18-.1.4-.15.66-.07 7 1.67 11.73 7.7 11.7 14.87v1.97c0 .53-.4.94-.92.94zM62.24 705h27.9v-1.06c0-6.17-4-11.35-9.97-12.95-2.62 1.25-5.37 1.25-8 0-5.98 1.6-9.93 6.77-9.93 12.94z" stroke="#fff" stroke-opacity="0" stroke-width=".73" fill="#fff" fill-opacity="0"/><path d="M62.7 706.84H32.93c-.5 0-.92-.4-.92-.93v-1.96c-.03-7.16 4.7-13.18 11.67-14.87.25-.08.47-.04.7.07 2.2 1.2 4.64 1.2 6.9 0 .18-.1.4-.15.65-.07 7 1.67 11.74 7.7 11.7 14.87v1.97c0 .53-.4.94-.9.94zM33.88 705h27.9v-1.06c0-6.17-4-11.35-9.97-12.95-2.63 1.25-5.38 1.25-8 0-5.98 1.6-9.93 6.77-9.93 12.94z" stroke="#fff" stroke-opacity="0" stroke-width=".73" fill="#fff" fill-opacity="0"/><use xlink:href="#f" transform="matrix(1,0,0,1,2,744.5) translate(36.55 14.4)"/><path d="M300 162c0-16.57 13.43-30 30-30h1157.5c16.57 0 30 13.43 30 30v1048c0 16.57-13.43 30-30 30H330c-16.57 0-30-13.43-30-30z" stroke="#474747" fill-opacity="0"/><path d="M408 134.4v3.54c0 6.42-7.1 13.05-15.76 13.05h-46.48c-8.66 0-15.75-6.64-15.75-13.06v-3.54z" fill="#9d5125"/><path d="M360.03 100c8.03 0 14.82 4.4 18.17 11.67 4.6-3.14 10.92-1.98 14.04 2.65 1.17 1.64 1.7 3.32 1.8 5.3 7.87.68 13.95 8.25 13.95 14.27v1.3c0 6.45-7.1 13-15.76 13h-46.5c-8.64 0-15.74-6.55-15.74-13v-1.3c0-5.02 4.2-11.87 10.06-13.56v-.57c.08-10.95 8.97-19.82 19.97-19.77z" fill="#f58535"/><path d="M348.9 123.13h3.08l3.1 14.58 3.32-14.54h3.1l-4.6 18.2h-3.7zM363.37 123.13h5.77c3.5 0 5.04 2.2 5.04 5.3 0 3.1-1.9 5.4-5.33 5.4h-2.57v7.53h-2.9zm2.9 8.5h2.08c1.56 0 2.9-.83 2.9-3.14 0-1.98-.78-3.17-3.1-3.17h-1.87zM387.8 134.83v.38c0 3.32-1.3 6.52-5.6 6.52-4.6 0-6.04-2.97-6.04-9.47s1.43-9.46 6.05-9.46c5.2 0 5.54 3.8 5.54 5.7v.37h-2.9v-.3c0-1.7-.5-3.64-2.6-3.57-2.08.08-3.1 1.35-3.1 7.22 0 5.87.92 7.3 3.14 7.3 2.42 0 2.7-2.7 2.7-4.42v-.3z" fill="#fff"/><use xlink:href="#g" transform="matrix(1,0,0,1,300,1210) translate(531.65 12.799999999999999)"/><use xlink:href="#h" transform="matrix(1,0,0,1,300,1210) translate(584.5 12.799999999999999)"/><use xlink:href="#b" transform="matrix(1,0,0,1,300,1210) translate(643.4 12.799999999999999)"/><path d="M537.5 322c0-16.57 13.43-30 30-30H890c16.57 0 30 13.43 30 30v228c0 16.57-13.43 30-30 30H567.5c-16.57 0-30-13.43-30-30z" stroke="#474747" fill-opacity="0"/><path d="M599.47 280.24v-5.9c0-7.25-5.88-13.13-13.12-13.13-7.24 0-13.12 5.9-13.12 13.14v5.9h6.64v-5.9c0-3.58 2.9-6.5 6.48-6.5 3.57 0 6.48 2.92 6.48 6.5v5.9h6.64z" fill="#876a22"/><path d="M599.48 280.26h5.42v20.83h-37.4v-20.84h5.72v-7.1c0-7.28 5.87-13.16 13.13-13.16 7.26 0 13.13 5.88 13.13 13.15v7.1zm-6.66 0v-7.1c0-3.6-2.88-6.5-6.47-6.5-3.6 0-6.47 2.9-6.47 6.5v7.1h12.94z" fill="#daa835"/><path d="M567.5 301.1h37.4v.9h-37.4z" fill="#876a22"/><use xlink:href="#i" transform="matrix(1,0,0,1,537.5,550) translate(130.05 12.799999999999999)"/><use xlink:href="#j" transform="matrix(1,0,0,1,537.5,550) translate(183.95000000000002 12.799999999999999)"/><use xlink:href="#k" transform="matrix(1,0,0,1,537.5,550) translate(242.95000000000002 12.799999999999999)"/><path d="M220 711.87c0 25.18-22.4 45.62-50 45.62s-50-20.45-50-45.63c0-25.2 22.4-45.63 50-45.63s50 20.44 50 45.63z" fill="#9d5025"/><path d="M120 708.12h100v3.74H120v-3.74z" fill="#9d5025"/><path d="M220 708.12c0 25.2-22.4 45.63-50 45.63s-50-20.44-50-45.63c0-25.18 22.4-45.62 50-45.62s50 20.44 50 45.62z" fill="#f58536"/><path d="M132.3 712.66v-1.2c.38-5.52 3.77-10.13 9.26-12.54.53-10.2 10.02-18.05 21.24-17.52 7 .3 12.88 3.56 16.42 9.1 5.73-2.2 12.28.2 14.7 5.4.37.73.6 1.35.74 2.1 7.54 1.36 12.96 7.94 12.96 13.47v1.1c0 6.76-7.68 12.7-16.42 12.7h-42.56c-8.66.03-16.34-5.9-16.34-12.6z" fill="#fff"/><path d="M180.24 695.34l-3.2 2-1.62-3.2c-2.48-5.02-7.56-8.1-13.62-8.14h-.06c-8.28 0-15.05 6.16-15.05 13.77v2.56l-2.36.62c-3.97 1.45-6.57 4.64-6.9 8.55v1.1c0 3.7 4.95 8 11.27 8h42.6c6.4 0 11.28-4.3 11.28-8v-1.1c0-3.74-4.56-8.62-9.84-9l-2.86-.2-.2-2.6c0-1.1-.4-2-1.04-2.9-1.9-2.53-5.67-3.15-8.4-1.42z" fill="#f58536"/><use xlink:href="#l" transform="matrix(1,0,0,1,120,757.5) translate(19.525 14.4)"/><use xlink:href="#m" transform="matrix(1,0,0,1,120,757.5) translate(16.525 36)"/><path d="M860 386.67c0 22.53-17.92 40.82-40 40.82s-40-18.3-40-40.83c0-22.53 17.92-40.82 40-40.82s40 18.3 40 40.82z" fill="#9d5025"/><path d="M860 383.32c0 22.53-17.92 40.82-40 40.82s-40-18.3-40-40.82c0-22.53 17.92-40.82 40-40.82s40 18.3 40 40.82z" fill="#f58536"/><path d="M830.82 364.36h4.22v37.9h-4.22v-37.9zM842.7 373.96l11.03 9.17-11.04 9.55v-18.72z" fill="#fff"/><path d="M803.64 381.18l2.43 1.98-2.68 2.3h41.14v-4.28h-40.9zM803.4 366.52h31.64v-4.3h-31.4l2.4 2-2.65 2.3zM806.05 402.1l-2.66 2.3h31.64v-4.3h-31.4l2.4 2zM794.6 375.82l8.83 7.33-8.83 7.66v-14.98zM794.6 356.87l8.83 7.34-8.83 7.65v-14.98zM794.6 394.77l8.83 7.34-8.83 7.65v-14.98z" fill="#fff"/><use xlink:href="#n" transform="matrix(1,0,0,1,780,427.5) translate(1.9249999999999972 14.4)"/><use xlink:href="#o" transform="matrix(1,0,0,1,780,427.5) translate(43.875 14.4)"/><use xlink:href="#m" transform="matrix(1,0,0,1,780,427.5) translate(6.524999999999999 36)"/><path d="M593.76 443.7h52.48c13.76 0 13.76 0 13.76 13.54v51.7c0 13.55 0 13.55-13.76 13.55h-52.48c-13.76 0-13.76 0-13.76-13.56v-51.7c0-13.55 0-13.55 13.76-13.55z" fill="#9d5025"/><path d="M593.76 440h52.48C660 440 660 440 660 453.55v51.7c0 13.55 0 13.55-13.76 13.55h-52.48c-13.76 0-13.76 0-13.76-13.55v-51.7C580 440 580 440 593.76 440z" fill="#f58536"/><use xlink:href="#p" transform="matrix(1,0,0,1,580,522.5) translate(10.024999999999999 14.4)"/><use xlink:href="#q" transform="matrix(1,0,0,1,580,522.5) translate(21.525 36)"/><path d="M1121.25 180h300v970h-300z" fill="#fff" fill-opacity="0"/><path d="M1128.25 180h6m4 0h6m4 0h6m4 0h6m4 0h6m4 0h6m4 0h6m4 0h6m4 0h6m4 0h6m4 0h6m4 0h6m4 0h6m4 0h6m4 0h6m4 0h6m4 0h6m4 0h6m4 0h6m4 0h6m4 0h6m4 0h6m4 0h6m4 0h6m4 0h6m4 0h6m4 0h6m4 0h6m4 0h6m4 0h3v3m0 4v6m0 4v6m0 4v6m0 4v6m0 4v6m0 4v6m0 4v6m0 4v6m0 4v6m0 4v6m0 4v6m0 4v6m0 4v6m0 4v6m0 4v6m0 4v6m0 4v6m0 4v6m0 4v6m0 4v6m0 4v6m0 4v6m0 4v6m0 4v6m0 4v6m0 4v6m0 4v6m0 4v6m0 4v6m0 4v6m0 4v6m0 4v6m0 4v6m0 4v6m0 4v6m0 4v6m0 4v6m0 4v6m0 4v6m0 4v6m0 4v6m0 4v6m0 4v6m0 4v6m0 4v6m0 4v6m0 4v6m0 4v6m0 4v6m0 4v6m0 4v6m0 4v6m0 4v6m0 4v6m0 4v6m0 4v6m0 4v6m0 4v6m0 4v6m0 4v6m0 4v6m0 4v6m0 4v6m0 4v6m0 4v6m0 4v6m0 4v6m0 4v6m0 4v6m0 4v6m0 4v6m0 4v6m0 4v6m0 4v6m0 4v6m0 4v6m0 4v6m0 4v6m0 4v6m0 4v6m0 4v6m0 4v6m0 4v6m0 4v6m0 4v6m0 4v6m0 4v6m0 4v6m0 4v6m0 4v6m0 4v6m0 4v6m0 4v6m0 4v6m0 4v6m0 4v6m0 4v3h-3m-4 0h-6m-4 0h-6m-4 0h-6m-4 0h-6m-4 0h-6m-4 0h-6m-4 0h-6m-4 0h-6m-4 0h-6m-4 0h-6m-4 0h-6m-4 0h-6m-4 0h-6m-4 0h-6m-4 0h-6m-4 0h-6m-4 0h-6m-4 0h-6m-4 0h-6m-4 0h-6m-4 0h-6m-4 0h-6m-4 0h-6m-4 0h-6m-4 0h-6m-4 0h-6m-4 0h-6m-4 0h-6m-4 0h-6m-4 0h-3v-3m0-4v-6m0-4v-6m0-4v-6m0-4v-6m0-4v-6m0-4v-6m0-4v-6m0-4v-6m0-4v-6m0-4v-6m0-4v-6m0-4v-6m0-4v-6m0-4v-6m0-4v-6m0-4v-6m0-4v-6m0-4v-6m0-4v-6m0-4v-6m0-4v-6m0-4v-6m0-4v-6m0-4v-6m0-4v-6m0-4v-6m0-4v-6m0-4v-6m0-4v-6m0-4v-6m0-4v-6m0-4v-6m0-4v-6m0-4v-6m0-4v-6m0-4v-6m0-4v-6m0-4v-6m0-4v-6m0-4v-6m0-4v-6m0-4v-6m0-4v-6m0-4v-6m0-4v-6m0-4v-6m0-4v-6m0-4v-6m0-4v-6m0-4v-6m0-4v-6m0-4v-6m0-4v-6m0-4v-6m0-4v-6m0-4v-6m0-4v-6m0-4v-6m0-4v-6m0-4v-6m0-4v-6m0-4v-6m0-4v-6m0-4v-6m0-4v-6m0-4v-6m0-4v-6m0-4v-6m0-4v-6m0-4v-6m0-4v-6m0-4v-6m0-4v-6m0-4v-6m0-4v-6m0-4v-6m0-4v-6m0-4v-6m0-4v-6m0-4v-6m0-4v-6m0-4v-6m0-4v-6m0-4v-6m0-4v-6m0-4v-6m0-4v-6m0-4v-6m0-4v-6m0-4v-6m0-4v-6m0-4v-6m0-4v-6m0-4v-6m0-4v-6m0-4v-6m0-4v-3h3" stroke="#d86613" stroke-width="2" fill="none"/><path d="M1243.25 180h56v56h-56v-56z" stroke="#fff" stroke-opacity="0" fill="#d86613"/><path d="M1262.93 203.73l-1.14 1.13 2.32 2.34h-12.87v1.6h12.87l-2.33 2.34 1.13 1.13 4.27-4.27-4.27-4.27zM1291.25 207.2h-12.87l2.33-2.34-1.13-1.13-4.27 4.27 4.27 4.27 1.14-1.13-2.32-2.34h12.87v-1.6zM1270.45 190.63v12.87h1.6v-12.87l2.34 2.33 1.12-1.13-4.27-4.28-4.27 4.28 1.13 1.13 2.35-2.33zM1272.05 225.37V212.5h-1.6v12.87l-2.34-2.33-1.12 1.13 4.27 4.28 4.27-4.28-1.13-1.13-2.35 2.33z" stroke="#fff" stroke-opacity="0" fill="#fff"/><use xlink:href="#r" transform="matrix(1,0,0,1,1121.25,251) translate(99.55 14.4)"/><use xlink:href="#s" transform="matrix(1,0,0,1,1121.25,251) translate(141.55 14.4)"/><path d="M1235.26 361.07l-4 1.58v44.7l4 1.57 16.24-22.78-16.24-25.07z" fill="#9d5025"/><path d="M1244.6 407.2l-9.34 1.72v-47.85l9.34 1.68v44.45z" fill="#f58536"/><path d="M1239.68 359.3l4.93-1.92 23.42 29.6-23.4 25.62-4.94-1.93V359.3z" fill="#9d5025"/><path d="M1256.27 410l-11.66 2.6v-55.22l11.67 2.6V410z" fill="#f58536"/><path d="M1250.1 355.22l6.2-2.45 34.5 37.44-34.5 27.02-6.2-2.45v-59.55z" fill="#9d5025"/><path d="M1271.23 412.9l-14.96 4.32v-64.45l14.96 4.32v55.8z" fill="#f58536"/><path d="M1263.26 350l7.98-3.13 37.35 40.26-37.36 36-7.98-3.13v-70z" fill="#9d5025"/><path d="M1311.24 407.34l-40 15.8v-76.26l40 15.78v44.68z" fill="#f58536"/><use xlink:href="#t" transform="matrix(1,0,0,1,1231.25,423.125) translate(7.024999999999999 14.4)"/><use xlink:href="#u" transform="matrix(1,0,0,1,1231.25,423.125) translate(22.525 36)"/><path d="M377.5 711.97c0 26.5-21.84 48.02-48.75 48.02-26.9 0-48.75-21.53-48.75-48.03s21.84-48.03 48.75-48.03c26.9 0 48.75 21.52 48.75 48.02z" fill="#9d5025"/><path d="M377.5 708.02c0 26.5-21.84 48.03-48.75 48.03-26.9 0-48.75-21.52-48.75-48.02 0-26.5 21.84-48.03 48.75-48.03 26.9 0 48.75 21.52 48.75 48.02z" fill="#f58536"/><path d="M342.97 669.23v17.44H314.5v-17.44H343zM364.97 719.7v14.2h-14.4v-14.2h14.4zM346.75 719.7v14.2h-14.4v-14.2h14.4zM324.56 719.7v14.2h-14.4v-14.2h14.4zM306.32 719.7v14.2h-14.4v-14.2h14.4z" fill="#fff"/><path d="M297.82 707.4h2.6v13.94h-2.6V707.4z" fill="#fff"/><path d="M297.82 707.4h20.83v2.56h-20.83v-2.55z" fill="#fff"/><path d="M316.06 707.4h2.6v13.94h-2.6V707.4zM338.25 707.4h2.6v13.94h-2.6V707.4z" fill="#fff"/><path d="M338.25 707.4h20.82v2.56h-20.82v-2.55z" fill="#fff"/><path d="M356.48 707.4h2.6v13.94h-2.6V707.4zM306.96 697.46h2.6v11.22h-2.6v-11.22zM327.44 684.1h2.6v13.57h-2.6V684.1z" fill="#fff"/><path d="M306.96 696.4H350v2.54h-43.04v-2.55z" fill="#fff"/><path d="M347.4 697.46h2.6v11.22h-2.6v-11.22z" fill="#fff"/><use xlink:href="#v" transform="matrix(1,0,0,1,280,760) translate(0.04999999999999716 14.4)"/><use xlink:href="#w" transform="matrix(1,0,0,1,280,760) translate(57.95 14.4)"/><use xlink:href="#x" transform="matrix(1,0,0,1,280,760) translate(13.549999999999997 36)"/><path d="M1151.25 873.84c0-16.56 13.43-30 30-30h180c16.57 0 30 13.44 30 30v132.38c0 16.57-13.43 30-30 30h-180c-16.57 0-30-13.43-30-30z" stroke="#474747" stroke-width="3" fill-opacity="0"/><path d="M1151.25 873.84c0-16.56 13.43-30 30-30h180c16.57 0 30 13.44 30 30v132.38c0 16.57-13.43 30-30 30h-180c-16.57 0-30-13.43-30-30z" fill="none"/><path d="M1166.3 847.93l3.16-1.68 4.7-1.57 4.94-.76 2.15-.08h15m15 0h30m15 0h30m15 0h30m15 0h15l5 .42 4.82 1.23 4.54 2 .62.4m10.94 10.98l1.7 3.18 1.55 4.7.77 4.93.08 2.14v14.7m0 14.72v29.42m0 14.7v29.42m0 14.7v14.72l-.42 5-1.22 4.82-2 4.54-.4.6m-11 10.95l-3.16 1.68-4.7 1.58-4.94.76-2.15.08h-15m-15 0h-30m-15 0h-30m-15 0h-30m-15 0h-15l-5-.42-4.82-1.23-4.54-2-.62-.4m-10.94-11l-1.7-3.17-1.55-4.7-.77-4.93-.08-2.15v-14.7m0-14.72v-29.4m0-14.72v-29.42m0-14.7v-14.72l.42-5 1.22-4.82 2-4.54.4-.6" stroke="red" stroke-width="3" fill="none"/><use xlink:href="#y" transform="matrix(1,0,0,1,1151.25,1006.21875) translate(63.574999999999996 12.799999999999999)"/><use xlink:href="#z" transform="matrix(1,0,0,1,1151.25,1006.21875) translate(130.475 12.799999999999999)"/><path d="M920 643.65h120v29.6H920v-29.6z" fill="#9d5025"/><path d="M920 640h120v28.8H920V640z" fill="#f58536"/><path d="M920 682.07h120v30.9H920v-30.9z" fill="#9d5025"/><path d="M920 679.72h120v28.8H920v-28.8z" fill="#f58536"/><path d="M920 721.07h120V751H920v-29.93z" fill="#9d5025"/><path d="M920 717.72h120v28.8H920v-28.8z" fill="#f58536"/><path d="M934.74 663h-2.68v-12.74h-3.6v-1.8h.3c1.66 0 3.5-.4 4.03-2.63v-.35h1.94zM950.2 648c-3.2 4.65-4.85 9.34-5.36 14.97h-2.9c.63-5.57 2.38-10.17 5.68-14.67h-7.52v-2.54h10.1zM962.44 663h-10c0-7.64 7.22-7.46 7.22-12.9 0-1.45-.62-2.65-2.17-2.65-2.06 0-2.36 1.8-2.36 3.6h-2.58c0-3.5 1.34-5.66 5.05-5.66 2.38-.3 4.54 1.38 4.85 3.76v.92c0 5.82-5.56 6.18-6.9 10.48h6.9zm5.87 0h-2.78v-3.27h2.78zm10 0h-2.8v-12.74h-3.6v-1.8h.3c1.66 0 3.62-.4 4.03-2.63v-.35h2.06zm10.3.34c-4.34 0-5.16-3.37-5.16-8.42 0-5.02.93-9.5 5.36-9.5 3.1 0 4.63 1.4 4.63 4.28h-2.68c0-1-.5-2.3-1.85-2.3-2.58 0-2.68 3.5-2.68 6.06.72-1.22 1.96-1.9 3.3-1.8 2.37 0 4.22 1.8 4.22 5.23.1 4.04-1.55 6.45-5.15 6.45zm10.9-.35h-2.77v-3.27h2.78zm8.04.34c-3.3 0-5.15-2.13-5.15-9 0-6.88 1.76-9 5.16-9 3.3 0 5.05 2.14 5.05 9 0 6.85-1.74 9-5.04 9zm10.7-.35h-2.67v-3.27h2.78zm8.05.34c-3.3 0-5.14-2.13-5.14-9 0-6.88 1.85-9 5.15-9 3.4 0 5.16 2.14 5.16 9 0 6.85-1.75 9-5.05 9zM1026.36 685.2c3.3 0 5.16 2.13 5.16 9 0 6.9-1.76 9-5.16 9-3.3 0-5.15-2.2-5.15-9.05 0-6.86 1.87-8.94 5.16-8.94zm-10.7 14.27h2.77v3.34h-2.9zm-12.38-11.3h.2c1.65 0 3.6-.4 4.02-2.62v-.34h2.07v17.6h-2.9V690h-3.5zm-6.5 11.3h2.8v3.34h-2.9zm-7.83-14.26c3 0 4.64 1.38 4.64 4.26h-2.9c0-1-.4-2.28-1.75-2.28-2.57 0-2.68 3.5-2.68 6.05.62-1.2 1.86-1.88 3.3-1.8 2.37 0 4.23 1.8 4.23 5.24 0 4.05-1.65 6.44-5.26 6.44-4.33 0-5.15-3.35-5.15-8.4 0-5.04 1.02-9.5 5.55-9.5zm-16.9 2.98h.2c1.66 0 3.62-.4 4.03-2.63v-.34h2.06v17.6h-2.78V690h-3.6zm-6.5 11.3h2.8v3.33h-2.8zm-8.03-12.3c-2.06 0-2.37 1.8-2.37 3.6h-2.57c0-3.5 1.33-5.64 5.04-5.64 2.38-.3 4.54 1.4 4.75 3.76.1.33.1.6.1.9 0 5.84-5.57 6.2-6.9 10.5h6.9v2.5h-10c0-7.62 7.22-7.44 7.22-12.92 0-1.47-.63-2.7-2.18-2.7zm-17.4-1.63h10.08v2.23c-3.2 4.65-4.84 9.34-5.35 14.97h-2.9c.63-5.56 2.38-10.16 5.68-14.66h-7.52zm-11.56 2.63h.2c1.66 0 3.62-.4 4.03-2.63v-.34h2.05v17.6h-2.78V690h-3.6zM1026.36 723.25c3.3 0 5.16 2.12 5.16 9 0 6.87-1.76 9-5.16 9-3.3 0-5.15-2.25-5.15-9.06 0-6.82 1.87-8.95 5.16-8.95zm-10.7 14.26h2.77v3.3h-2.9zm-8.05-12.28c-2.05 0-2.36 1.8-2.36 3.6h-2.68c0-3.5 1.44-5.64 5.05-5.64 2.38-.3 4.54 1.4 4.85 3.76v.9c0 5.82-5.56 6.2-6.9 10.5h7v2.45h-10c0-7.63 7.12-7.47 7.12-12.94 0-1.43-.52-2.64-2.06-2.64zm-10.8 12.3h2.77v3.27h-2.9zm-7.85-14.27c3 0 4.64 1.37 4.64 4.25h-2.9c0-1-.4-2.28-1.75-2.28-2.57 0-2.68 3.5-2.68 6.05.62-1.22 1.86-1.9 3.3-1.8 2.37 0 4.23 1.8 4.23 5.24 0 4.06-1.65 6.45-5.26 6.45-4.33 0-5.15-3.36-5.15-8.4 0-5.05 1.02-9.5 5.55-9.5zm-16.9 2.97h.2c1.66 0 3.62-.4 4.03-2.63v-.35h2.06v17.54h-2.78V728h-3.6zm-6.5 11.3h2.8v3.27h-2.8zm-8.03-12.3c-2.06 0-2.37 1.8-2.37 3.6h-2.57c0-3.5 1.33-5.64 5.04-5.64 2.38-.3 4.54 1.4 4.75 3.76.1.33.1.6.1.9 0 5.82-5.57 6.2-6.9 10.5h6.9v2.45h-10c0-7.63 7.22-7.47 7.22-12.94 0-1.43-.63-2.64-2.18-2.64zm-17.4-1.63h10.08v2.22c-3.2 4.65-4.84 9.34-5.35 14.97h-2.9c.63-5.57 2.38-10.17 5.68-14.67h-7.52zm-11.66 2.62h.3c1.66 0 3.62-.4 4.03-2.63v-.35h1.95v17.54h-2.68V728h-3.6z" fill="#fff"/><path d="M1007.53 647.7c-1.88 0-2.37 1.8-2.37 6.97s.5 6.96 2.37 6.96c1.88 0 2.36-1.8 2.36-6.96 0-5.17-.5-6.97-2.37-6.97zM1026.38 647.7c-1.88 0-2.36 1.8-2.36 6.97s.48 6.96 2.36 6.96 2.36-1.8 2.36-6.96c0-5.17-.48-6.97-2.36-6.97zM1026.38 701.37c1.88 0 2.36-1.8 2.36-6.96s-.48-6.96-2.36-6.96-2.36 1.8-2.36 6.97.46 6.97 2.36 6.97zM988.84 701.37c1.68 0 2.27-1.8 2.27-3.76 0-2.42-.7-3.8-2.26-3.8-2 0-2.36 1.8-2.36 3.94 0 2.12.68 3.63 2.36 3.63zM1026.38 739.4c1.88 0 2.36-1.8 2.36-6.95 0-5.17-.48-6.97-2.36-6.97s-2.36 1.8-2.36 6.97c0 5.16.46 6.96 2.36 6.96zM988.84 739.4c1.68 0 2.27-1.8 2.27-3.75 0-2.43-.7-3.8-2.26-3.8-2 0-2.36 1.8-2.36 3.93 0 2.12.68 3.63 2.36 3.63zM988.84 661.63c1.68 0 2.27-1.8 2.27-3.76 0-2.43-.7-3.8-2.26-3.8-2 0-2.36 1.8-2.36 3.93 0 2.12.68 3.63 2.36 3.63z" fill="#f58536"/><use xlink:href="#A" transform="matrix(1,0,0,1,920,751) translate(17.549999999999997 14.4)"/><use xlink:href="#B" transform="matrix(1,0,0,1,920,751) translate(63.5 14.4)"/><path d="M220 444.87l39.98 5.74v3.4c0 5.03-17.9 9.1-40 9.1-22.06 0-39.98-4.07-39.98-9.1v-3.68z" fill="#8c3123"/><path d="M220 469.34c16.7 0 31-2.36 36.96-5.67l2-3.2.78-2.92v3.63l-13.1 54c0 3.4-11.93 6.06-26.63 6.06s-26.6-2.67-26.6-6.05l-13.12-54.02v-3.56l3.02 6.18c6.04 3.24 20.18 5.54 36.7 5.54z" fill="#8c3123"/><path d="M220 441.25c22.08 0 40 4.08 40 9.08s-17.92 9.05-40 9.05-40-4-40-9.05c0-5.04 17.92-9.08 40-9.08z" fill="#e05243"/><path d="M220 465.66c20.58 0 37.5-3.48 39.74-8.05l-13.12 54c0 3.38-11.92 6.08-26.62 6.08-14.7 0-26.63-2.7-26.63-6.07l-13.1-54c2.2 4.58 19.14 8.06 39.73 8.06z" fill="#e05243"/><use xlink:href="#C" transform="matrix(1,0,0,1,180,521.25) translate(29 14.4)"/><use xlink:href="#D" transform="matrix(1,0,0,1,180,521.25) translate(13.5 36)"/><path d="M537.5 830.13c0-16.57 13.43-30 30-30H890c16.57 0 30 13.43 30 30v251.8c0 16.58-13.43 30-30 30H567.5c-16.57 0-30-13.42-30-30z" stroke="#474747" fill-opacity="0"/><path d="M599.47 788.36v-5.9c0-7.25-5.88-13.13-13.12-13.13-7.24 0-13.12 5.88-13.12 13.13v5.9h6.64v-5.9c0-3.57 2.9-6.5 6.48-6.5 3.57 0 6.48 2.93 6.48 6.5v5.9h6.64z" fill="#876a22"/><path d="M599.48 788.38h5.42v20.84h-37.4v-20.84h5.72v-7.1c0-7.28 5.87-13.15 13.13-13.15 7.26 0 13.13 5.87 13.13 13.14v7.1zm-6.66 0v-7.1c0-3.58-2.88-6.5-6.47-6.5-3.6 0-6.47 2.92-6.47 6.5v7.1h12.94z" fill="#daa835"/><path d="M567.5 809.22h37.4v.9h-37.4z" fill="#876a22"/><use xlink:href="#i" transform="matrix(1,0,0,1,537.5,1081.9375) translate(130.05 12.799999999999999)"/><use xlink:href="#j" transform="matrix(1,0,0,1,537.5,1081.9375) translate(183.95000000000002 12.799999999999999)"/><use xlink:href="#E" transform="matrix(1,0,0,1,537.5,1081.9375) translate(242.95000000000002 12.799999999999999)"/><path d="M860 913.23c0 22.53-17.92 40.82-40 40.82s-40-18.3-40-40.82c0-22.53 17.92-40.82 40-40.82s40 18.3 40 40.83z" fill="#9d5025"/><path d="M860 909.88c0 22.53-17.92 40.82-40 40.82s-40-18.3-40-40.82c0-22.53 17.92-40.82 40-40.82s40 18.3 40 40.82z" fill="#f58536"/><path d="M830.82 890.92h4.22v37.9h-4.22v-37.9zM842.7 900.52l11.03 9.17-11.04 9.54v-18.72z" fill="#fff"/><path d="M803.64 907.73l2.43 2-2.68 2.3h41.14v-4.3h-40.9zM803.4 893.08h31.64v-4.3h-31.4l2.4 2-2.65 2.3zM806.05 928.67l-2.66 2.3h31.64v-4.3h-31.4l2.4 2zM794.6 902.38l8.83 7.33-8.83 7.67v-15zM794.6 883.43l8.83 7.34-8.83 7.64v-14.97zM794.6 921.33l8.83 7.34-8.83 7.64v-14.97z" fill="#fff"/><use xlink:href="#n" transform="matrix(1,0,0,1,780,954.0596928373197) translate(1.9249999999999972 14.4)"/><use xlink:href="#o" transform="matrix(1,0,0,1,780,954.0596928373197) translate(43.875 14.4)"/><use xlink:href="#m" transform="matrix(1,0,0,1,780,954.0596928373197) translate(6.524999999999999 36)"/><path d="M1235.26 881.1l-4 1.58v44.7l4 1.57 16.24-22.78-16.24-25.07z" fill="#9d5025"/><path d="M1244.6 927.22l-9.34 1.73V881.1l9.34 1.67v44.45z" fill="#f58536"/><path d="M1239.68 879.34l4.93-1.93 23.42 29.6-23.4 25.63-4.94-1.93v-51.36z" fill="#9d5025"/><path d="M1256.27 930.03l-11.66 2.6V877.4l11.67 2.6v50.03z" fill="#f58536"/><path d="M1250.1 875.24l6.2-2.45 34.5 37.44-34.5 27-6.2-2.45v-59.56z" fill="#9d5025"/><path d="M1271.23 932.92l-14.96 4.32V872.8l14.96 4.3v55.82z" fill="#f58536"/><path d="M1263.26 870.03l7.98-3.13 37.35 40.26-37.36 36-7.98-3.14v-70z" fill="#9d5025"/><path d="M1311.24 927.37l-40 15.78V866.9l40 15.78v44.7z" fill="#f58536"/><use xlink:href="#t" transform="matrix(1,0,0,1,1231.25,943.1506356746395) translate(7.024999999999999 14.4)"/><use xlink:href="#u" transform="matrix(1,0,0,1,1231.25,943.1506356746395) translate(22.525 36)"/><path d="M1151.25 351.94c0-16.57 13.43-30 30-30h180c16.57 0 30 13.43 30 30V484.3c0 16.58-13.43 30-30 30h-180c-16.57 0-30-13.42-30-30z" stroke="#474747" stroke-width="3" fill-opacity="0"/><path d="M1151.25 351.94c0-16.57 13.43-30 30-30h180c16.57 0 30 13.43 30 30V484.3c0 16.58-13.43 30-30 30h-180c-16.57 0-30-13.42-30-30z" fill="none"/><path d="M1166.3 326.02l3.16-1.68 4.7-1.56 4.94-.77 2.15-.06h15m15 0h30m15 0h30m15 0h30m15 0h15l5 .4 4.82 1.24 4.54 2 .62.42m10.94 10.98l1.7 3.17 1.55 4.7.77 4.93.08 2.16v14.7m0 14.7v29.43m0 14.7v29.43m0 14.7v14.7l-.42 5.03-1.22 4.8-2 4.54-.4.62m-11 10.93l-3.16 1.68-4.7 1.57-4.94.77-2.15.07h-15m-15 0h-30m-15 0h-30m-15 0h-30m-15 0h-15l-5-.4-4.82-1.23-4.54-2-.62-.42m-10.94-10.98l-1.7-3.17-1.55-4.7-.77-4.93-.08-2.16v-14.7m0-14.7v-29.42m0-14.7v-29.43m0-14.7v-14.7l.42-5.03 1.22-4.8 2-4.54.4-.62" stroke="red" stroke-width="3" fill="none"/><use xlink:href="#y" transform="matrix(1,0,0,1,1151.25,484.3125) translate(63.574999999999996 12.799999999999999)"/><use xlink:href="#z" transform="matrix(1,0,0,1,1151.25,484.3125) translate(130.475 12.799999999999999)"/><path d="M1080 302c0-16.57 13.43-30 30-30h322.5c16.57 0 30 13.43 30 30v268c0 16.57-13.43 30-30 30H1110c-16.57 0-30-13.43-30-30z" stroke="#474747" fill-opacity="0"/><path d="M1141.97 260.24v-5.9c0-7.25-5.88-13.13-13.12-13.13-7.24 0-13.12 5.9-13.12 13.14v5.9h6.64v-5.9c0-3.58 2.9-6.5 6.48-6.5 3.57 0 6.48 2.92 6.48 6.5v5.9h6.64z" fill="#876a22"/><path d="M1141.98 260.26h5.42v20.83H1110v-20.84h5.72v-7.1c0-7.28 5.87-13.16 13.13-13.16 7.26 0 13.13 5.88 13.13 13.15v7.1zm-6.66 0v-7.1c0-3.6-2.88-6.5-6.47-6.5-3.6 0-6.47 2.9-6.47 6.5v7.1h12.94z" fill="#daa835"/><path d="M1110 281.1h37.4v.9H1110z" fill="#876a22"/><use xlink:href="#F" transform="matrix(1,0,0,1,1080,570) translate(126.55 12.799999999999999)"/><use xlink:href="#j" transform="matrix(1,0,0,1,1080,570) translate(187.45 12.799999999999999)"/><use xlink:href="#k" transform="matrix(1,0,0,1,1080,570) translate(246.45 12.799999999999999)"/><path d="M1080 838.2c0-16.58 13.43-30 30-30h322.5c16.57 0 30 13.42 30 30V1090c0 16.57-13.43 30-30 30H1110c-16.57 0-30-13.43-30-30z" stroke="#474747" fill-opacity="0"/><path d="M1141.97 796.43v-5.9c0-7.26-5.88-13.14-13.12-13.14-7.24 0-13.12 5.87-13.12 13.13v5.9h6.64v-5.9c0-3.58 2.9-6.5 6.48-6.5 3.57 0 6.48 2.92 6.48 6.5v5.9h6.64z" fill="#876a22"/><path d="M1141.98 796.45h5.42v20.83H1110v-20.83h5.72v-7.1c0-7.3 5.87-13.16 13.13-13.16 7.26 0 13.13 5.86 13.13 13.14v7.1zm-6.66 0v-7.1c0-3.6-2.88-6.5-6.47-6.5-3.6 0-6.47 2.9-6.47 6.5v7.1h12.94z" fill="#daa835"/><path d="M1110 817.28h37.4v.9H1110z" fill="#876a22"/><use xlink:href="#F" transform="matrix(1,0,0,1,1080,1090) translate(126.55 12.799999999999999)"/><use xlink:href="#j" transform="matrix(1,0,0,1,1080,1090) translate(187.45 12.799999999999999)"/><use xlink:href="#E" transform="matrix(1,0,0,1,1080,1090) translate(246.45 12.799999999999999)"/><path d="M480 770c0-16.57 13.43-30 30-30h937.5c16.57 0 30 13.43 30 30v390c0 16.57-13.43 30-30 30H510c-16.57 0-30-13.43-30-30z" fill-opacity="0"/><path d="M495.04 744.1l3.17-1.7 4.72-1.56 4.93-.76L510 740h14.88m14.88 0h29.76m14.88 0h29.77m14.88 0h29.76m14.9 0h29.75m14.88 0h29.77m14.88 0h29.76m14.88 0h29.76m14.88 0h29.76m14.88 0h29.77m14.88 0h29.76m14.9 0h29.75m14.88 0h29.77m14.88 0h29.76m14.88 0h29.76m14.88 0h29.76m14.88 0h29.77m14.88 0h29.76m14.9 0h29.75m14.88 0h29.77m14.88 0h29.76m14.88 0h14.88l5 .42 4.82 1.22 4.54 2 .6.42m10.95 10.98l1.7 3.17 1.56 4.72.76 4.93.08 2.15v14.44m0 14.45v28.88m0 14.44v28.9m0 14.44v28.88m0 14.45v28.88m0 14.44v28.9m0 14.44v28.88m0 14.45v28.88m0 14.44v28.9m0 14.44V1160l-.42 5-1.22 4.82-2 4.54-.42.6m-10.98 10.95l-3.17 1.7-4.72 1.56-4.93.76-2.15.08h-14.88m-14.88 0h-29.76m-14.88 0h-29.77m-14.88 0h-29.76m-14.9 0h-29.75m-14.88 0h-29.77m-14.88 0h-29.76m-14.88 0h-29.76m-14.88 0h-29.76m-14.88 0h-29.77m-14.88 0H986.2m-14.9 0h-29.75m-14.88 0H896.9m-14.88 0h-29.76m-14.88 0h-29.76m-14.88 0h-29.76m-14.88 0h-29.77m-14.88 0H673.7m-14.9 0h-29.75m-14.88 0H584.4m-14.88 0h-29.76m-14.88 0H510l-5-.42-4.82-1.22-4.54-2-.6-.42m-10.95-10.98l-1.7-3.17-1.56-4.72-.76-4.93-.08-2.15v-14.44m0-14.45v-28.88m0-14.44v-28.9m0-14.44v-28.88m0-14.45v-28.88m0-14.44v-28.9m0-14.44v-28.88m0-14.45v-28.88m0-14.44v-28.9m0-14.44V770l.42-5 1.22-4.82 2-4.54.42-.6" stroke="#f7981f" stroke-width="3" fill="none"/><use xlink:href="#c" transform="matrix(1,0,0,1,480,1160) translate(425.325 12.799999999999999)"/><use xlink:href="#d" transform="matrix(1,0,0,1,480,1160) translate(514.725 12.799999999999999)"/><use xlink:href="#G" transform="matrix(1,0,0,1,480,1160) translate(560.675 12.799999999999999)"/><path d="M93 705.5h8.63" stroke="#000" stroke-width="2" fill="none"/><path d="M93.03 706.5h-1.27l.24-.6v-1.4h1.03z"/><path d="M116.9 705.5l-14.27 4.64v-9.28z" stroke="#000" stroke-width="2"/><path d="M220.9 714h40.66" stroke="#000" stroke-width="2" fill="none"/><path d="M220.92 715h-1.08l.1-2h.98z"/><path d="M276.83 714l-14.27 4.62v-9.27z" stroke="#000" stroke-width="2"/><path d="M860.9 388.47h360.28" stroke="#000" stroke-width="2" fill="none"/><path d="M860.92 389.47h-1.1l.13-2h.97z"/><path d="M1236.45 388.47l-14.27 4.63v-9.27z" stroke="#000" stroke-width="2"/><path d="M593.76 963.7h52.48c13.76 0 13.76 0 13.76 13.54v51.7c0 13.55 0 13.55-13.76 13.55h-52.48c-13.76 0-13.76 0-13.76-13.56v-51.7c0-13.55 0-13.55 13.76-13.55z" fill="#9d5025"/><path d="M593.76 960h52.48C660 960 660 960 660 973.55v51.7c0 13.55 0 13.55-13.76 13.55h-52.48c-13.76 0-13.76 0-13.76-13.55v-51.7C580 960 580 960 593.76 960z" fill="#f58536"/><g><use xlink:href="#p" transform="matrix(1,0,0,1,580,1042.5) translate(10.024999999999999 14.4)"/><use xlink:href="#q" transform="matrix(1,0,0,1,580,1042.5) translate(21.525 36)"/></g><path d="M328.75 659V395h433.63" stroke="#000" stroke-width="2" fill="none"/><path d="M329.75 660.05l-1-.05-1 .02v-1.05h2z"/><path d="M777.65 395l-14.27 4.64v-9.28z" stroke="#000" stroke-width="2"/><path d="M328.75 761v160.56h433.63" stroke="#000" stroke-width="2" fill="none"/><path d="M328.75 760l1-.03v1.05h-2v-1.08z"/><path d="M777.65 921.56l-14.27 4.63v-9.28z" stroke="#000" stroke-width="2"/><path d="M661 1004.73h59.44v-83.17h41.94" stroke="#000" stroke-width="2" fill="none"/><path d="M661.03 1005.73H660v-2h1.03z"/><path d="M777.65 921.56l-14.27 4.63v-9.28z" stroke="#000" stroke-width="2"/><path d="M661 484.73h59.44V395h41.94" stroke="#000" stroke-width="2" fill="none"/><path d="M661.03 485.73H660v-2h1.03z"/><path d="M777.65 395l-14.27 4.64v-9.28z" stroke="#000" stroke-width="2"/><path d="M860.9 915.03h351.85" stroke="#000" stroke-width="2" fill="none"/><path d="M860.92 916.03h-1.1l.13-2h.97z"/><path d="M1228 915.03l-14.25 4.63v-9.27z" stroke="#000" stroke-width="2"/><path d="M820 868.06v-21H430v-355.8H270.95" stroke="#000" stroke-width="2" fill="none"/><path d="M821 869.12l-1-.06-1 .05v-1.07h2z"/><path d="M255.68 491.25l14.27-4.64v9.3z" stroke="#000" stroke-width="2"/><path d="M820 341.5V310H220v112.75" stroke="#000" stroke-width="2" fill="none"/><path d="M821 342.56l-1-.06-1 .05v-1.08h2z"/><path d="M220 438l-4.64-14.25h9.28z" stroke="#000" stroke-width="2"/><path d="M1230.25 908.5H878.43" stroke="#000" stroke-width="2" fill="none"/><path d="M1231.25 909.5h-1.03v-2h1.03z"/><path d="M863.17 908.5l14.26-4.63v9.27z" stroke="#000" stroke-width="2"/><path d="M1230.25 395H877.6" stroke="#000" stroke-width="2" fill="none"/><path d="M1231.25 396h-1.03v-2h1.03z"/><path d="M862.33 395l14.26-4.64v9.28z" stroke="#000" stroke-width="2"/><defs><path d="M205 0l-28-72H64L36 0H1l101-248h38L239 0h-34zm-38-99l-47-123c-12 45-31 82-46 123h93" id="H"/><path d="M266 0h-40l-56-210L115 0H75L2-248h35L96-30l15-64 43-154h32l59 218 59-218h35" id="I"/><path d="M185-189c-5-48-123-54-124 2 14 75 158 14 163 119 3 78-121 87-175 55-17-10-28-26-33-46l33-7c5 56 141 63 141-1 0-78-155-14-162-118-5-82 145-84 179-34 5 7 8 16 11 25" id="J"/><g id="a"><use transform="matrix(0.05,0,0,0.05,0,0)" xlink:href="#H"/><use transform="matrix(0.05,0,0,0.05,11.35,0)" xlink:href="#I"/><use transform="matrix(0.05,0,0,0.05,28.299999999999997,0)" xlink:href="#J"/></g><path d="M96-169c-40 0-48 33-48 73s9 75 48 75c24 0 41-14 43-38l32 2c-6 37-31 61-74 61-59 0-76-41-82-99-10-93 101-131 147-64 4 7 5 14 7 22l-32 3c-4-21-16-35-41-35" id="K"/><path d="M24 0v-261h32V0H24" id="L"/><path d="M100-194c62-1 85 37 85 99 1 63-27 99-86 99S16-35 15-95c0-66 28-99 85-99zM99-20c44 1 53-31 53-75 0-43-8-75-51-75s-53 32-53 75 10 74 51 75" id="M"/><path d="M84 4C-5 8 30-112 23-190h32v120c0 31 7 50 39 49 72-2 45-101 50-169h31l1 190h-30c-1-10 1-25-2-33-11 22-28 36-60 37" id="N"/><path d="M85-194c31 0 48 13 60 33l-1-100h32l1 261h-30c-2-10 0-23-3-31C134-8 116 4 85 4 32 4 16-35 15-94c0-66 23-100 70-100zm9 24c-40 0-46 34-46 75 0 40 6 74 45 74 42 0 51-32 51-76 0-42-9-74-50-73" id="O"/><g id="b"><use transform="matrix(0.05,0,0,0.05,0,0)" xlink:href="#K"/><use transform="matrix(0.05,0,0,0.05,9,0)" xlink:href="#L"/><use transform="matrix(0.05,0,0,0.05,12.949999999999998,0)" xlink:href="#M"/><use transform="matrix(0.05,0,0,0.05,22.95,0)" xlink:href="#N"/><use transform="matrix(0.05,0,0,0.05,32.95,0)" xlink:href="#O"/></g><path d="M108 0H70L1-190h34L89-25l56-165h34" id="P"/><path d="M141-36C126-15 110 5 73 4 37 3 15-17 15-53c-1-64 63-63 125-63 3-35-9-54-41-54-24 1-41 7-42 31l-33-3c5-37 33-52 76-52 45 0 72 20 72 64v82c-1 20 7 32 28 27v20c-31 9-61-2-59-35zM48-53c0 20 12 33 32 33 41-3 63-29 60-74-43 2-92-5-92 41" id="Q"/><path d="M24-231v-30h32v30H24zM24 0v-190h32V0H24" id="R"/><path d="M115-194c53 0 69 39 70 98 0 66-23 100-70 100C84 3 66-7 56-30L54 0H23l1-261h32v101c10-23 28-34 59-34zm-8 174c40 0 45-34 45-75 0-40-5-75-45-74-42 0-51 32-51 76 0 43 10 73 51 73" id="S"/><path d="M59-47c-2 24 18 29 38 22v24C64 9 27 4 27-40v-127H5v-23h24l9-43h21v43h35v23H59v120" id="T"/><path d="M179-190L93 31C79 59 56 82 12 73V49c39 6 53-20 64-50L1-190h34L92-34l54-156h33" id="U"/><g id="c"><use transform="matrix(0.05,0,0,0.05,0,0)" xlink:href="#H"/><use transform="matrix(0.05,0,0,0.05,11.65,0)" xlink:href="#P"/><use transform="matrix(0.05,0,0,0.05,20.65,0)" xlink:href="#Q"/><use transform="matrix(0.05,0,0,0.05,30.649999999999995,0)" xlink:href="#R"/><use transform="matrix(0.05,0,0,0.05,34.6,0)" xlink:href="#L"/><use transform="matrix(0.05,0,0,0.05,38.550000000000004,0)" xlink:href="#Q"/><use transform="matrix(0.05,0,0,0.05,48.550000000000004,0)" xlink:href="#S"/><use transform="matrix(0.05,0,0,0.05,58.550000000000004,0)" xlink:href="#R"/><use transform="matrix(0.05,0,0,0.05,62.5,0)" xlink:href="#L"/><use transform="matrix(0.05,0,0,0.05,66.45,0)" xlink:href="#R"/><use transform="matrix(0.05,0,0,0.05,70.4,0)" xlink:href="#T"/><use transform="matrix(0.05,0,0,0.05,75.4,0)" xlink:href="#U"/></g><path d="M209 0H11v-25l151-195H24v-28h176v25L50-27h159V0" id="V"/><path d="M117-194c89-4 53 116 60 194h-32v-121c0-31-8-49-39-48C34-167 62-67 57 0H25l-1-190h30c1 10-1 24 2 32 11-22 29-35 61-36" id="W"/><path d="M100-194c63 0 86 42 84 106H49c0 40 14 67 53 68 26 1 43-12 49-29l28 8c-11 28-37 45-77 45C44 4 14-33 15-96c1-61 26-98 85-98zm52 81c6-60-76-77-97-28-3 7-6 17-6 28h103" id="X"/><g id="d"><use transform="matrix(0.05,0,0,0.05,0,0)" xlink:href="#V"/><use transform="matrix(0.05,0,0,0.05,10.950000000000001,0)" xlink:href="#M"/><use transform="matrix(0.05,0,0,0.05,20.950000000000003,0)" xlink:href="#W"/><use transform="matrix(0.05,0,0,0.05,30.950000000000003,0)" xlink:href="#X"/></g><use transform="matrix(0.05,0,0,0.05,0,0)" xlink:href="#H" id="e"/><path d="M232-93c-1 65-40 97-104 97C67 4 28-28 28-90v-158h33c8 89-33 224 67 224 102 0 64-133 71-224h33v155" id="Y"/><path d="M135-143c-3-34-86-38-87 0 15 53 115 12 119 90S17 21 10-45l28-5c4 36 97 45 98 0-10-56-113-15-118-90-4-57 82-63 122-42 12 7 21 19 24 35" id="Z"/><path d="M114-163C36-179 61-72 57 0H25l-1-190h30c1 12-1 29 2 39 6-27 23-49 58-41v29" id="aa"/><g id="f"><use transform="matrix(0.05,0,0,0.05,0,0)" xlink:href="#Y"/><use transform="matrix(0.05,0,0,0.05,12.950000000000001,0)" xlink:href="#Z"/><use transform="matrix(0.05,0,0,0.05,21.950000000000003,0)" xlink:href="#X"/><use transform="matrix(0.05,0,0,0.05,31.950000000000003,0)" xlink:href="#aa"/><use transform="matrix(0.05,0,0,0.05,37.900000000000006,0)" xlink:href="#Z"/></g><g id="g"><use transform="matrix(0.05,0,0,0.05,0,0)" xlink:href="#P"/><use transform="matrix(0.05,0,0,0.05,9,0)" xlink:href="#R"/><use transform="matrix(0.05,0,0,0.05,12.949999999999998,0)" xlink:href="#aa"/><use transform="matrix(0.05,0,0,0.05,18.9,0)" xlink:href="#T"/><use transform="matrix(0.05,0,0,0.05,23.9,0)" xlink:href="#N"/><use transform="matrix(0.05,0,0,0.05,33.9,0)" xlink:href="#Q"/><use transform="matrix(0.05,0,0,0.05,43.9,0)" xlink:href="#L"/></g><path d="M115-194c55 1 70 41 70 98S169 2 115 4C84 4 66-9 55-30l1 105H24l-1-265h31l2 30c10-21 28-34 59-34zm-8 174c40 0 45-34 45-75s-6-73-45-74c-42 0-51 32-51 76 0 43 10 73 51 73" id="ab"/><g id="h"><use transform="matrix(0.05,0,0,0.05,0,0)" xlink:href="#ab"/><use transform="matrix(0.05,0,0,0.05,10,0)" xlink:href="#aa"/><use transform="matrix(0.05,0,0,0.05,15.949999999999998,0)" xlink:href="#R"/><use transform="matrix(0.05,0,0,0.05,19.9,0)" xlink:href="#P"/><use transform="matrix(0.05,0,0,0.05,28.899999999999995,0)" xlink:href="#Q"/><use transform="matrix(0.05,0,0,0.05,38.9,0)" xlink:href="#T"/><use transform="matrix(0.05,0,0,0.05,43.9,0)" xlink:href="#X"/></g><path d="M30-248c87 1 191-15 191 75 0 78-77 80-158 76V0H30v-248zm33 125c57 0 124 11 124-50 0-59-68-47-124-48v98" id="ac"/><g id="i"><use transform="matrix(0.05,0,0,0.05,0,0)" xlink:href="#ac"/><use transform="matrix(0.05,0,0,0.05,12,0)" xlink:href="#N"/><use transform="matrix(0.05,0,0,0.05,22,0)" xlink:href="#S"/><use transform="matrix(0.05,0,0,0.05,32,0)" xlink:href="#L"/><use transform="matrix(0.05,0,0,0.05,35.95,0)" xlink:href="#R"/><use transform="matrix(0.05,0,0,0.05,39.900000000000006,0)" xlink:href="#K"/></g><g id="j"><use transform="matrix(0.05,0,0,0.05,0,0)" xlink:href="#Z"/><use transform="matrix(0.05,0,0,0.05,9,0)" xlink:href="#N"/><use transform="matrix(0.05,0,0,0.05,19,0)" xlink:href="#S"/><use transform="matrix(0.05,0,0,0.05,29,0)" xlink:href="#W"/><use transform="matrix(0.05,0,0,0.05,39,0)" xlink:href="#X"/><use transform="matrix(0.05,0,0,0.05,49,0)" xlink:href="#T"/></g><path d="M27 0v-27h64v-190l-56 39v-29l58-41h29v221h61V0H27" id="ad"/><use transform="matrix(0.05,0,0,0.05,0,0)" xlink:href="#ad" id="k"/><path d="M33 0v-248h34V0H33" id="ae"/><g id="l"><use transform="matrix(0.05,0,0,0.05,0,0)" xlink:href="#ae"/><use transform="matrix(0.05,0,0,0.05,5,0)" xlink:href="#W"/><use transform="matrix(0.05,0,0,0.05,15,0)" xlink:href="#T"/><use transform="matrix(0.05,0,0,0.05,20,0)" xlink:href="#X"/><use transform="matrix(0.05,0,0,0.05,30,0)" xlink:href="#aa"/><use transform="matrix(0.05,0,0,0.05,35.95,0)" xlink:href="#W"/><use transform="matrix(0.05,0,0,0.05,45.95,0)" xlink:href="#X"/><use transform="matrix(0.05,0,0,0.05,55.95,0)" xlink:href="#T"/></g><path d="M177-190C167-65 218 103 67 71c-23-6-38-20-44-43l32-5c15 47 100 32 89-28v-30C133-14 115 1 83 1 29 1 15-40 15-95c0-56 16-97 71-98 29-1 48 16 59 35 1-10 0-23 2-32h30zM94-22c36 0 50-32 50-73 0-42-14-75-50-75-39 0-46 34-46 75s6 73 46 73" id="af"/><path d="M206 0h-36l-40-164L89 0H53L-1-190h32L70-26l43-164h34l41 164 42-164h31" id="ag"/><g id="m"><use transform="matrix(0.05,0,0,0.05,0,0)" xlink:href="#af"/><use transform="matrix(0.05,0,0,0.05,10,0)" xlink:href="#Q"/><use transform="matrix(0.05,0,0,0.05,20,0)" xlink:href="#T"/><use transform="matrix(0.05,0,0,0.05,25,0)" xlink:href="#X"/><use transform="matrix(0.05,0,0,0.05,35,0)" xlink:href="#ag"/><use transform="matrix(0.05,0,0,0.05,47.95,0)" xlink:href="#Q"/><use transform="matrix(0.05,0,0,0.05,57.95,0)" xlink:href="#U"/></g><path d="M137 0h-34L2-248h35l83 218 83-218h36" id="ah"/><path d="M212-179c-10-28-35-45-73-45-59 0-87 40-87 99 0 60 29 101 89 101 43 0 62-24 78-52l27 14C228-24 195 4 139 4 59 4 22-46 18-125c-6-104 99-153 187-111 19 9 31 26 39 46" id="ai"/><g id="n"><use transform="matrix(0.05,0,0,0.05,0,0)" xlink:href="#ah"/><use transform="matrix(0.05,0,0,0.05,12,0)" xlink:href="#ac"/><use transform="matrix(0.05,0,0,0.05,24,0)" xlink:href="#ai"/></g><path d="M190 0L58-211 59 0H30v-248h39L202-35l-2-213h31V0h-41" id="aj"/><path d="M127-220V0H93v-220H8v-28h204v28h-85" id="ak"/><g id="o"><use transform="matrix(0.05,0,0,0.05,0,0)" xlink:href="#aj"/><use transform="matrix(0.05,0,0,0.05,12.950000000000001,0)" xlink:href="#H"/><use transform="matrix(0.05,0,0,0.05,23.6,0)" xlink:href="#ak"/></g><path d="M160-131c35 5 61 23 61 61C221 17 115-2 30 0v-248c76 3 177-17 177 60 0 33-19 50-47 57zm-97-11c50-1 110 9 110-42 0-47-63-36-110-37v79zm0 115c55-2 124 14 124-45 0-56-70-42-124-44v89" id="al"/><g id="p"><use transform="matrix(0.05,0,0,0.05,0,0)" xlink:href="#al"/><use transform="matrix(0.05,0,0,0.05,12,0)" xlink:href="#Q"/><use transform="matrix(0.05,0,0,0.05,22,0)" xlink:href="#Z"/><use transform="matrix(0.05,0,0,0.05,31,0)" xlink:href="#T"/><use transform="matrix(0.05,0,0,0.05,36,0)" xlink:href="#R"/><use transform="matrix(0.05,0,0,0.05,39.95,0)" xlink:href="#M"/><use transform="matrix(0.05,0,0,0.05,49.95,0)" xlink:href="#W"/></g><path d="M197 0v-115H63V0H30v-248h33v105h134v-105h34V0h-34" id="am"/><g id="q"><use transform="matrix(0.05,0,0,0.05,0,0)" xlink:href="#am"/><use transform="matrix(0.05,0,0,0.05,12.950000000000001,0)" xlink:href="#M"/><use transform="matrix(0.05,0,0,0.05,22.950000000000003,0)" xlink:href="#Z"/><use transform="matrix(0.05,0,0,0.05,31.950000000000003,0)" xlink:href="#T"/></g><path fill="#d86613" d="M205 0l-28-72H64L36 0H1l101-248h38L239 0h-34zm-38-99l-47-123c-12 45-31 82-46 123h93" id="an"/><path fill="#d86613" d="M84 4C-5 8 30-112 23-190h32v120c0 31 7 50 39 49 72-2 45-101 50-169h31l1 190h-30c-1-10 1-25-2-33-11 22-28 36-60 37" id="ao"/><path fill="#d86613" d="M59-47c-2 24 18 29 38 22v24C64 9 27 4 27-40v-127H5v-23h24l9-43h21v43h35v23H59v120" id="ap"/><path fill="#d86613" d="M100-194c62-1 85 37 85 99 1 63-27 99-86 99S16-35 15-95c0-66 28-99 85-99zM99-20c44 1 53-31 53-75 0-43-8-75-51-75s-53 32-53 75 10 74 51 75" id="aq"/><g id="r"><use transform="matrix(0.05,0,0,0.05,0,0)" xlink:href="#an"/><use transform="matrix(0.05,0,0,0.05,12,0)" xlink:href="#ao"/><use transform="matrix(0.05,0,0,0.05,22,0)" xlink:href="#ap"/><use transform="matrix(0.05,0,0,0.05,27,0)" xlink:href="#aq"/></g><path fill="#d86613" d="M185-189c-5-48-123-54-124 2 14 75 158 14 163 119 3 78-121 87-175 55-17-10-28-26-33-46l33-7c5 56 141 63 141-1 0-78-155-14-162-118-5-82 145-84 179-34 5 7 8 16 11 25" id="ar"/><path fill="#d86613" d="M96-169c-40 0-48 33-48 73s9 75 48 75c24 0 41-14 43-38l32 2c-6 37-31 61-74 61-59 0-76-41-82-99-10-93 101-131 147-64 4 7 5 14 7 22l-32 3c-4-21-16-35-41-35" id="as"/><path fill="#d86613" d="M141-36C126-15 110 5 73 4 37 3 15-17 15-53c-1-64 63-63 125-63 3-35-9-54-41-54-24 1-41 7-42 31l-33-3c5-37 33-52 76-52 45 0 72 20 72 64v82c-1 20 7 32 28 27v20c-31 9-61-2-59-35zM48-53c0 20 12 33 32 33 41-3 63-29 60-74-43 2-92-5-92 41" id="at"/><path fill="#d86613" d="M24 0v-261h32V0H24" id="au"/><path fill="#d86613" d="M24-231v-30h32v30H24zM24 0v-190h32V0H24" id="av"/><path fill="#d86613" d="M117-194c89-4 53 116 60 194h-32v-121c0-31-8-49-39-48C34-167 62-67 57 0H25l-1-190h30c1 10-1 24 2 32 11-22 29-35 61-36" id="aw"/><path fill="#d86613" d="M177-190C167-65 218 103 67 71c-23-6-38-20-44-43l32-5c15 47 100 32 89-28v-30C133-14 115 1 83 1 29 1 15-40 15-95c0-56 16-97 71-98 29-1 48 16 59 35 1-10 0-23 2-32h30zM94-22c36 0 50-32 50-73 0-42-14-75-50-75-39 0-46 34-46 75s6 73 46 73" id="ax"/><g id="s"><use transform="matrix(0.05,0,0,0.05,0,0)" xlink:href="#ar"/><use transform="matrix(0.05,0,0,0.05,12,0)" xlink:href="#as"/><use transform="matrix(0.05,0,0,0.05,21,0)" xlink:href="#at"/><use transform="matrix(0.05,0,0,0.05,31,0)" xlink:href="#au"/><use transform="matrix(0.05,0,0,0.05,34.95,0)" xlink:href="#av"/><use transform="matrix(0.05,0,0,0.05,38.900000000000006,0)" xlink:href="#aw"/><use transform="matrix(0.05,0,0,0.05,48.900000000000006,0)" xlink:href="#ax"/></g><path d="M210-169c-67 3-38 105-44 169h-31v-121c0-29-5-50-35-48C34-165 62-65 56 0H25l-1-190h30c1 10-1 24 2 32 10-44 99-50 107 0 11-21 27-35 58-36 85-2 47 119 55 194h-31v-121c0-29-5-49-35-48" id="ay"/><path d="M9 0v-24l116-142H16v-24h144v24L44-24h123V0H9" id="az"/><g id="t"><use transform="matrix(0.05,0,0,0.05,0,0)" xlink:href="#H"/><use transform="matrix(0.05,0,0,0.05,12,0)" xlink:href="#ay"/><use transform="matrix(0.05,0,0,0.05,26.950000000000003,0)" xlink:href="#Q"/><use transform="matrix(0.05,0,0,0.05,36.95,0)" xlink:href="#az"/><use transform="matrix(0.05,0,0,0.05,45.95,0)" xlink:href="#M"/><use transform="matrix(0.05,0,0,0.05,55.95,0)" xlink:href="#W"/></g><path d="M30 0v-248h187v28H63v79h144v27H63v87h162V0H30" id="aA"/><path d="M101-251c82-7 93 87 43 132L82-64C71-53 59-42 53-27h129V0H18c2-99 128-94 128-182 0-28-16-43-45-43s-46 15-49 41l-32-3c6-41 34-60 81-64" id="aB"/><g id="u"><use transform="matrix(0.05,0,0,0.05,0,0)" xlink:href="#aA"/><use transform="matrix(0.05,0,0,0.05,12,0)" xlink:href="#ai"/><use transform="matrix(0.05,0,0,0.05,24.950000000000003,0)" xlink:href="#aB"/></g><g id="v"><use transform="matrix(0.05,0,0,0.05,0,0)" xlink:href="#aA"/><use transform="matrix(0.05,0,0,0.05,12,0)" xlink:href="#L"/><use transform="matrix(0.05,0,0,0.05,15.949999999999998,0)" xlink:href="#Q"/><use transform="matrix(0.05,0,0,0.05,25.950000000000003,0)" xlink:href="#Z"/><use transform="matrix(0.05,0,0,0.05,34.95,0)" xlink:href="#T"/><use transform="matrix(0.05,0,0,0.05,39.95,0)" xlink:href="#R"/><use transform="matrix(0.05,0,0,0.05,43.900000000000006,0)" xlink:href="#K"/></g><path d="M30 0v-248h33v221h125V0H30" id="aC"/><g id="w"><use transform="matrix(0.05,0,0,0.05,0,0)" xlink:href="#aC"/><use transform="matrix(0.05,0,0,0.05,10,0)" xlink:href="#M"/><use transform="matrix(0.05,0,0,0.05,20,0)" xlink:href="#Q"/><use transform="matrix(0.05,0,0,0.05,30,0)" xlink:href="#O"/></g><g id="x"><use transform="matrix(0.05,0,0,0.05,0,0)" xlink:href="#al"/><use transform="matrix(0.05,0,0,0.05,12,0)" xlink:href="#Q"/><use transform="matrix(0.05,0,0,0.05,22,0)" xlink:href="#L"/><use transform="matrix(0.05,0,0,0.05,25.950000000000003,0)" xlink:href="#Q"/><use transform="matrix(0.05,0,0,0.05,35.95,0)" xlink:href="#W"/><use transform="matrix(0.05,0,0,0.05,45.95,0)" xlink:href="#K"/><use transform="matrix(0.05,0,0,0.05,54.95,0)" xlink:href="#X"/><use transform="matrix(0.05,0,0,0.05,64.95,0)" xlink:href="#aa"/></g><g id="y"><use transform="matrix(0.05,0,0,0.05,0,0)" xlink:href="#Z"/><use transform="matrix(0.05,0,0,0.05,9,0)" xlink:href="#X"/><use transform="matrix(0.05,0,0,0.05,19,0)" xlink:href="#K"/><use transform="matrix(0.05,0,0,0.05,28,0)" xlink:href="#N"/><use transform="matrix(0.05,0,0,0.05,38,0)" xlink:href="#aa"/><use transform="matrix(0.05,0,0,0.05,43.95,0)" xlink:href="#R"/><use transform="matrix(0.05,0,0,0.05,47.900000000000006,0)" xlink:href="#T"/><use transform="matrix(0.05,0,0,0.05,52.900000000000006,0)" xlink:href="#U"/></g><g id="z"><use transform="matrix(0.05,0,0,0.05,0,0)" xlink:href="#af"/><use transform="matrix(0.05,0,0,0.05,10,0)" xlink:href="#aa"/><use transform="matrix(0.05,0,0,0.05,15.949999999999998,0)" xlink:href="#M"/><use transform="matrix(0.05,0,0,0.05,25.950000000000003,0)" xlink:href="#N"/><use transform="matrix(0.05,0,0,0.05,35.95,0)" xlink:href="#ab"/></g><g id="A"><use transform="matrix(0.05,0,0,0.05,0,0)" xlink:href="#aa"/><use transform="matrix(0.05,0,0,0.05,5.95,0)" xlink:href="#M"/><use transform="matrix(0.05,0,0,0.05,15.949999999999998,0)" xlink:href="#N"/><use transform="matrix(0.05,0,0,0.05,25.950000000000003,0)" xlink:href="#T"/><use transform="matrix(0.05,0,0,0.05,30.950000000000003,0)" xlink:href="#X"/></g><g id="B"><use transform="matrix(0.05,0,0,0.05,0,0)" xlink:href="#T"/><use transform="matrix(0.05,0,0,0.05,5,0)" xlink:href="#Q"/><use transform="matrix(0.05,0,0,0.05,15,0)" xlink:href="#S"/><use transform="matrix(0.05,0,0,0.05,25,0)" xlink:href="#L"/><use transform="matrix(0.05,0,0,0.05,28.950000000000003,0)" xlink:href="#X"/></g><path d="M126-127c33 6 58 20 58 59 0 88-139 92-164 29-3-8-5-16-6-25l32-3c6 27 21 44 54 44 32 0 52-15 52-46 0-38-36-46-79-43v-28c39 1 72-4 72-42 0-27-17-43-46-43-28 0-47 15-49 41l-32-3c6-42 35-63 81-64 48-1 79 21 79 65 0 36-21 52-52 59" id="aD"/><g id="C"><use transform="matrix(0.05,0,0,0.05,0,0)" xlink:href="#J"/><use transform="matrix(0.05,0,0,0.05,12,0)" xlink:href="#aD"/></g><path d="M143 0L79-87 56-68V0H24v-261h32v163l83-92h37l-77 82L181 0h-38" id="aE"/><g id="D"><use transform="matrix(0.05,0,0,0.05,0,0)" xlink:href="#S"/><use transform="matrix(0.05,0,0,0.05,10,0)" xlink:href="#N"/><use transform="matrix(0.05,0,0,0.05,20,0)" xlink:href="#K"/><use transform="matrix(0.05,0,0,0.05,29,0)" xlink:href="#aE"/><use transform="matrix(0.05,0,0,0.05,38,0)" xlink:href="#X"/><use transform="matrix(0.05,0,0,0.05,48,0)" xlink:href="#T"/></g><use transform="matrix(0.05,0,0,0.05,0,0)" xlink:href="#aB" id="E"/><g id="F"><use transform="matrix(0.05,0,0,0.05,0,0)" xlink:href="#ac"/><use transform="matrix(0.05,0,0,0.05,12,0)" xlink:href="#aa"/><use transform="matrix(0.05,0,0,0.05,17.95,0)" xlink:href="#R"/><use transform="matrix(0.05,0,0,0.05,21.9,0)" xlink:href="#P"/><use transform="matrix(0.05,0,0,0.05,30.899999999999995,0)" xlink:href="#Q"/><use transform="matrix(0.05,0,0,0.05,40.9,0)" xlink:href="#T"/><use transform="matrix(0.05,0,0,0.05,45.9,0)" xlink:href="#X"/></g><use transform="matrix(0.05,0,0,0.05,0,0)" xlink:href="#al" id="G"/></defs></g></svg>